<?xml version="1.0" encoding="iso-8859-1"?>
<!-- Generator: Adobe Illustrator 19.0.0, SVG Export Plug-In . SVG Version: 6.00 Build 0)  -->
<svg version="1.1" id="Layer_1" xmlns="http://www.w3.org/2000/svg" xmlns:xlink="http://www.w3.org/1999/xlink" x="0px" y="0px"
	 viewBox="0 0 290.522 290.522" style="enable-background:new 0 0 290.522 290.522;" xml:space="preserve">
<g>
	<g>
		<path style="fill:#4EFFBB;" d="M152.293,9.974c-56.273,0-102.01,45.776-102.01,102.049c0,40.198,23.158,76.063,59.408,92.676
			v36.946c0,4.105,3.369,7.474,7.513,7.474h1.163v16.616c0,4.144,3.33,7.474,7.474,7.474h13.593v4.222
			c0,7.243,5.848,13.091,13.091,13.091s13.091-5.848,13.091-13.091v-4.222h13.13c4.105,0,7.474-3.33,7.474-7.474v-16.616h1.163
			c4.144,0,7.474-3.369,7.474-7.474v-36.946c36.285-16.613,59.447-52.474,59.447-92.676C254.303,55.753,208.524,9.974,152.293,9.974
			z"/>
		<g>
			<path style="fill:#222051;" d="M240.239,102.049c0,40.201-23.158,76.063-59.447,92.676v36.946c0,4.105-3.33,7.474-7.474,7.474
				h-1.163v16.613c0,4.144-3.369,7.474-7.474,7.474h-13.13v4.222c0,7.243-5.848,13.091-13.091,13.091s-13.091-5.848-13.091-13.091
				v-4.222h-13.593c-4.144,0-7.474-3.33-7.474-7.474v-16.613h-1.163c-4.144,0-7.513-3.369-7.513-7.474v-36.946
				c-36.249-16.613-59.408-52.477-59.408-92.676C36.219,45.776,81.959,0,138.229,0C194.463,0,240.239,45.776,240.239,102.049z
				 M170.529,182.836c33.268-13.283,54.722-45.003,54.722-80.787c0-48.024-39.038-87.062-87.023-87.062
				s-87.062,39.038-87.062,87.062c0,35.783,21.493,67.504,54.722,80.787c2.867,1.163,4.724,3.913,4.724,6.972v10.843
				c0.388-0.039,0.775-0.117,1.163-0.117h52.901c0.388,0,0.775,0.078,1.163,0.117v-10.843
				C165.844,186.745,167.701,183.996,170.529,182.836z M157.168,248.248v-9.1h-37.914v9.1H157.168z M157.168,224.158v-8.637h-37.914
				v8.637H157.168z"/>
		</g>
		<g>
			<path style="fill:#302C58;" d="M138.229,14.987c-47.985,0-87.062,39.038-87.062,87.062c0,35.783,21.493,67.504,54.722,80.787
				c2.867,1.163,4.724,3.913,4.724,6.972v10.843c0.388-0.039,0.775-0.117,1.163-0.117h52.901c0.388,0,0.775,0.078,1.163,0.117
				v-10.843c0-3.059,1.86-5.809,4.685-6.972c33.268-13.283,54.722-45.003,54.722-80.787
				C225.252,54.025,186.214,14.987,138.229,14.987z M169.67,80.787h-20.261c0-4.096-0.896-7.125-2.672-9.091
				c-1.785-1.965-4.294-2.948-7.528-2.948c-3.357,0-5.731,0.872-7.125,2.609c-1.391,1.743-2.083,4.066-2.083,6.972
				c0,2.744,0.742,4.926,2.239,6.539c1.491,1.62,4.511,3.513,9.061,5.683c9.451,3.029,16.547,6.756,21.28,11.179
				c4.727,4.424,7.089,10.503,7.089,18.242c0,7.164-2.269,12.92-6.816,17.259c-4.544,4.34-10.768,6.879-18.672,7.615v12.346h-9.764
				v-12.346c-8.276-0.697-15.074-3.324-20.391-7.895c-5.328-4.562-7.886-11.309-7.681-20.237l0.123-0.37h20.204
				c0,4.709,1.142,8.066,3.411,10.074c2.275,2.007,5.334,3.008,9.184,3.008c3.399,0,5.866-0.847,7.399-2.551
				c1.539-1.695,2.305-3.961,2.305-6.786c0-3.276-0.79-5.761-2.362-7.465c-1.581-1.695-4.574-3.468-8.995-5.31
				c-9.791-3.441-16.965-7.207-21.533-11.303c-4.562-4.093-6.849-10.031-6.849-17.812c0-7.002,2.374-12.745,7.125-17.226
				c4.748-4.487,11.182-7.053,19.291-7.708V40.306h9.698v13.145c7.657,1.025,13.677,3.91,18.064,8.661
				c4.376,4.751,6.503,10.873,6.386,18.365L169.67,80.787z"/>
		</g>
	</g>
</g>
<g>
</g>
<g>
</g>
<g>
</g>
<g>
</g>
<g>
</g>
<g>
</g>
<g>
</g>
<g>
</g>
<g>
</g>
<g>
</g>
<g>
</g>
<g>
</g>
<g>
</g>
<g>
</g>
<g>
</g>
</svg>
