<svg xmlns="http://www.w3.org/2000/svg" xmlns:xlink="http://www.w3.org/1999/xlink" version="1.1" width="256" height="256" viewBox="0 0 256 256" xml:space="preserve">

<defs>
</defs>
<g style="stroke: none; stroke-width: 0; stroke-dasharray: none; stroke-linecap: butt; stroke-linejoin: miter; stroke-miterlimit: 10; fill: none; fill-rule: nonzero; opacity: 1;" transform="translate(1.4065934065934016 1.4065934065934016) scale(2.81 2.81)" >
	<path d="M 58.834 8.347 V 2.811 C 58.834 1.259 57.575 0 56.023 0 H 40.438 c -1.552 0 -2.811 1.259 -2.811 2.811 v 3.478 l 3.64 2.05 l 6.385 17.127 l 4.624 0 l 4.986 -14.164 L 58.834 8.347 z" style="stroke: none; stroke-width: 1; stroke-dasharray: none; stroke-linecap: butt; stroke-linejoin: miter; stroke-miterlimit: 10; fill: rgb(71,207,193); fill-rule: nonzero; opacity: 1;" transform=" matrix(1 0 0 1 0 0) " stroke-linecap="round" />
	<path d="M 47.653 25.466 L 44.574 9.069 c -0.409 -2.179 -2.507 -3.614 -4.686 -3.204 L 22.915 9.051 c -2.179 0.409 -3.614 2.507 -3.204 4.686 l 2.202 11.728 L 47.653 25.466 z" style="stroke: none; stroke-width: 1; stroke-dasharray: none; stroke-linecap: butt; stroke-linejoin: miter; stroke-miterlimit: 10; fill: rgb(252,218,65); fill-rule: nonzero; opacity: 1;" transform=" matrix(1 0 0 1 0 0) " stroke-linecap="round" />
	<path d="M 66.489 25.466 l 2.441 -11.72 c 0.363 -1.745 -0.756 -3.453 -2.501 -3.817 l -7.304 -1.521 c -1.745 -0.363 -3.453 0.756 -3.817 2.501 l -3.032 14.558 L 66.489 25.466 z" style="stroke: none; stroke-width: 1; stroke-dasharray: none; stroke-linecap: butt; stroke-linejoin: miter; stroke-miterlimit: 10; fill: rgb(185,207,71); fill-rule: nonzero; opacity: 1;" transform=" matrix(1 0 0 1 0 0) " stroke-linecap="round" />
	<path d="M 13.31 29.893 L 9.334 84.884 C 9.134 87.648 11.322 90 14.093 90 h 61.814 c 2.771 0 4.959 -2.352 4.759 -5.116 L 76.69 29.893 c -0.18 -2.495 -2.257 -4.428 -4.759 -4.428 H 18.07 C 15.568 25.466 13.491 27.398 13.31 29.893 z" style="stroke: none; stroke-width: 1; stroke-dasharray: none; stroke-linecap: butt; stroke-linejoin: miter; stroke-miterlimit: 10; fill: rgb(223,55,72); fill-rule: nonzero; opacity: 1;" transform=" matrix(1 0 0 1 0 0) " stroke-linecap="round" />
	<path d="M 59.835 36.823 c -0.828 0 -1.5 -0.671 -1.5 -1.5 V 20.487 c 0 -7.353 -5.982 -13.335 -13.335 -13.335 c -7.353 0 -13.335 5.982 -13.335 13.335 v 14.835 c 0 0.829 -0.671 1.5 -1.5 1.5 s -1.5 -0.671 -1.5 -1.5 V 20.487 c 0 -9.007 7.328 -16.335 16.335 -16.335 c 9.007 0 16.335 7.328 16.335 16.335 v 14.835 C 61.335 36.151 60.663 36.823 59.835 36.823 z" style="stroke: none; stroke-width: 1; stroke-dasharray: none; stroke-linecap: butt; stroke-linejoin: miter; stroke-miterlimit: 10; fill: rgb(223,55,72); fill-rule: nonzero; opacity: 1;" transform=" matrix(1 0 0 1 0 0) " stroke-linecap="round" />
	<path d="M 30.056 77.206 c -0.512 0 -1.023 -0.195 -1.414 -0.586 c -0.781 -0.781 -0.781 -2.047 0 -2.828 L 58.53 43.904 c 0.781 -0.781 2.047 -0.781 2.828 0 c 0.781 0.781 0.781 2.047 0 2.829 L 31.47 76.62 C 31.08 77.011 30.567 77.206 30.056 77.206 z" style="stroke: none; stroke-width: 1; stroke-dasharray: none; stroke-linecap: butt; stroke-linejoin: miter; stroke-miterlimit: 10; fill: rgb(255,215,221); fill-rule: nonzero; opacity: 1;" transform=" matrix(1 0 0 1 0 0) " stroke-linecap="round" />
	<path d="M 34.056 57.396 c -4.454 0 -8.078 -3.624 -8.078 -8.078 c 0 -4.455 3.624 -8.079 8.078 -8.079 s 8.078 3.624 8.078 8.079 C 42.134 53.772 38.51 57.396 34.056 57.396 z M 34.056 45.24 c -2.249 0 -4.078 1.83 -4.078 4.079 s 1.83 4.078 4.078 4.078 s 4.078 -1.829 4.078 -4.078 S 36.304 45.24 34.056 45.24 z" style="stroke: none; stroke-width: 1; stroke-dasharray: none; stroke-linecap: butt; stroke-linejoin: miter; stroke-miterlimit: 10; fill: rgb(255,215,221); fill-rule: nonzero; opacity: 1;" transform=" matrix(1 0 0 1 0 0) " stroke-linecap="round" />
	<path d="M 55.944 79.284 c -4.454 0 -8.078 -3.624 -8.078 -8.078 s 3.624 -8.078 8.078 -8.078 s 8.078 3.624 8.078 8.078 S 60.398 79.284 55.944 79.284 z M 55.944 67.128 c -2.249 0 -4.078 1.829 -4.078 4.078 s 1.829 4.078 4.078 4.078 s 4.078 -1.829 4.078 -4.078 S 58.193 67.128 55.944 67.128 z" style="stroke: none; stroke-width: 1; stroke-dasharray: none; stroke-linecap: butt; stroke-linejoin: miter; stroke-miterlimit: 10; fill: rgb(255,215,221); fill-rule: nonzero; opacity: 1;" transform=" matrix(1 0 0 1 0 0) " stroke-linecap="round" />
</g>
</svg>