<svg width="161" height="148" viewBox="0 0 161 148" fill="none" xmlns="http://www.w3.org/2000/svg">
<path d="M106.313 116.575C106.438 114.3 107.561 112.835 109.84 112.512C111.934 112.217 114.049 114.09 113.997 116.202C113.94 118.499 112.648 119.991 110.36 120.107C108.069 120.221 106.747 118.83 106.313 116.575Z" fill="white"/>
<path d="M119.336 27.4041C121.649 27.5322 123.173 28.6393 123.367 30.9585C123.558 33.2702 122.29 34.7195 120.007 35.0743C117.832 35.4107 115.881 33.6902 115.836 31.4635C115.787 29.0872 117.183 27.8962 119.336 27.4041Z" fill="white"/>
<path d="M140.774 43.86C140.851 46.2792 139.68 47.6967 137.442 48.1112C135.331 48.5023 133.25 46.7479 133.201 44.5653C133.149 42.2493 134.363 40.7158 136.66 40.5376C138.928 40.3633 140.343 41.6481 140.774 43.86Z" fill="white"/>
<path d="M52.552 76.0261C52.563 74.0391 53.5917 72.4583 55.9563 72.2009C58.2992 71.9438 59.8422 73.1604 60.1035 75.5082C60.3675 77.8596 59.0899 79.309 56.7862 79.6954C54.7335 80.0392 52.8197 78.4483 52.552 76.0261Z" fill="white"/>
<path d="M42.926 62.6145C42.7905 64.8929 41.7125 66.456 39.3383 66.6095C36.9792 66.7607 35.5105 65.4306 35.338 63.0969C35.1654 60.7417 36.4722 59.2656 38.8279 59.1006C41.2011 58.9307 42.4914 60.309 42.926 62.6145Z" fill="white"/>
<path d="M127.141 125.526C129.4 125.576 130.982 126.528 131.284 128.892C131.588 131.245 130.362 132.691 128.124 133.16C126.006 133.605 123.89 131.917 123.772 129.731C123.646 127.392 124.92 126.067 127.141 125.526Z" fill="white"/>
<path d="M85.3704 33.1833C87.8505 33.3666 89.407 34.4984 89.505 36.8488C89.6028 39.1624 88.302 40.6653 85.9249 40.7804C83.5603 40.8921 82.1355 39.5818 81.9951 37.2244C81.8524 34.8176 83.3441 33.6512 85.3704 33.1833Z" fill="white"/>
<path d="M77.4513 119.401C79.6891 119.52 81.2862 120.477 81.5139 122.862C81.738 125.201 80.5723 126.642 78.244 126.985C75.9783 127.317 74.0195 125.75 73.9695 123.518C73.9175 121.194 75.2487 119.899 77.4513 119.401Z" fill="white"/>
<path d="M6.12893 65.9735C8.44802 66.0859 10.0526 67.0633 10.2709 69.4681C10.4858 71.839 9.28058 73.2938 6.90505 73.5498C4.47423 73.8129 3.05797 72.4497 2.78466 70.1917C2.49722 67.8207 3.96871 66.5423 6.12893 65.9735Z" fill="white"/>
<path d="M139.371 81.212C137.41 81.1698 135.947 80.0939 135.684 77.712C135.455 75.6393 137.108 73.6115 139.122 73.5874C141.44 73.561 142.913 74.8101 143.256 77.0969C143.56 79.1139 141.838 80.9996 139.371 81.212Z" fill="white"/>
<path d="M83.3221 0.140832C85.2342 0.140649 86.762 1.08533 87.0894 3.46628C87.4028 5.7464 85.8806 7.64489 83.6146 7.73094C81.2612 7.82035 79.8865 6.50865 79.5308 4.28084C79.2134 2.29104 80.9053 0.392346 83.3221 0.140832Z" fill="white"/>
<path d="M158.239 57.0603C158.419 59.1837 156.882 61.0381 154.807 61.2047C152.779 61.366 150.806 59.7082 150.636 57.6984C150.468 55.6923 152.135 53.7302 154.162 53.5436C156.223 53.3554 158.06 54.9407 158.239 57.0603Z" fill="white"/>
<path d="M21.5552 45.98C23.5576 45.9658 24.9867 47.1859 25.3833 49.4315C25.742 51.4508 24.0462 53.4325 21.9351 53.5523C19.5876 53.6865 18.1209 52.5519 17.8348 50.1601C17.5715 47.9674 19.0255 46.221 21.5552 45.98Z" fill="white"/>
<path d="M92.6507 107.103C90.6798 106.963 89.088 105.965 88.9049 103.552C88.7214 101.158 90.0553 99.6754 92.3481 99.4655C94.699 99.2494 96.1059 100.697 96.4727 102.95C96.7894 104.901 94.9661 106.918 92.6507 107.103Z" fill="white"/>
<path d="M64.085 109.871C64.2584 111.943 62.6732 113.764 60.5488 113.93C58.4306 114.096 56.569 112.537 56.4205 110.475C56.2745 108.445 57.9435 106.48 59.9492 106.321C61.9547 106.16 63.9164 107.845 64.085 109.871Z" fill="white"/>
<path d="M128.16 96.7215C128.206 99.3557 127.163 100.879 124.779 101.132C122.401 101.383 120.884 100.147 120.63 97.818C120.376 95.4803 121.629 93.9593 123.981 93.6873C126.372 93.4095 127.638 94.7886 128.16 96.7215Z" fill="white"/>
<path d="M97.0179 17.3871C96.9865 15.1082 97.9915 13.5515 100.378 13.2865C102.776 13.0201 104.228 14.3019 104.486 16.6212C104.747 18.9542 103.553 20.534 101.194 20.7709C98.8752 21.001 97.433 19.7845 97.0179 17.3871Z" fill="white"/>
<path d="M85.7646 71.447C85.8997 69.1101 87.0695 67.7182 89.4326 67.5327C91.5368 67.369 93.4742 69.0606 93.4135 71.1051C93.3446 73.3921 92.1377 74.915 89.7545 75.0203C87.3777 75.124 86.1171 73.7456 85.7646 71.447Z" fill="white"/>
<path d="M41.1709 92.1095C43.4712 92.2414 44.9582 93.3704 45.0661 95.756C45.1729 98.12 43.898 99.5505 41.5216 99.6921C39.1009 99.8345 37.7497 98.4355 37.5985 96.128C37.4441 93.7484 38.8454 92.4744 41.1709 92.1095Z" fill="white"/>
<path d="M52.9032 40.2542C55.2116 40.1876 56.7914 41.2101 57.0292 43.5812C57.2611 45.888 56.1489 47.4038 53.7187 47.6723C51.306 47.9375 49.8265 46.7499 49.5652 44.4311C49.3028 42.1136 50.5413 40.6807 52.9032 40.2542Z" fill="white"/>
<path d="M47.1796 11.1373C47.2016 8.66791 48.4374 7.22921 50.7693 7.1108C53.1177 6.9927 54.5642 8.34217 54.6868 10.703C54.8105 13.0815 53.4941 14.4868 51.1276 14.6199C48.7218 14.754 47.4851 13.3695 47.1796 11.1373Z" fill="white"/>
<path d="M67.8872 20.172C70.2144 20.033 72.1821 21.6715 72.1605 23.7192C72.1374 25.9883 71.0688 27.5891 68.6178 27.7109C66.2315 27.8302 64.8439 26.573 64.6581 24.1969C64.4697 21.7536 65.8944 20.5712 67.8872 20.172Z" fill="white"/>
<path d="M39.7399 30.6025C39.6439 32.8909 38.7075 34.4161 36.2388 34.6141C33.8029 34.8105 32.3944 33.5628 32.1764 31.2597C31.958 28.9211 33.2332 27.4339 35.5956 27.2261C37.9618 27.0179 39.2919 28.3131 39.7399 30.6025Z" fill="white"/>
<path d="M22.4934 116.191C22.6785 113.875 23.7532 112.375 26.1623 112.256C28.57 112.135 30.0171 113.511 30.1377 115.781C30.261 118.057 29.0031 119.543 26.5486 119.667C24.1004 119.791 22.9286 118.419 22.4934 116.191Z" fill="white"/>
<path d="M98.8039 136.689C98.7821 138.551 97.5965 139.955 95.2244 140.076C92.8131 140.197 91.5303 138.829 91.3427 136.48C91.1744 134.348 92.8228 132.431 94.8903 132.512C97.1374 132.602 98.6675 133.686 98.8039 136.689Z" fill="white"/>
<path d="M79.1484 90.278C79.0901 92.342 77.9541 93.8622 75.5882 93.9841C73.2414 94.107 71.8466 92.7674 71.6274 90.416C71.429 88.2984 73.0859 86.4622 75.1569 86.3494C77.2115 86.2396 79.0109 87.8908 79.1484 90.278Z" fill="white"/>
<path d="M20.3072 83.1797C20.3014 80.6256 21.5743 79.2018 23.8752 79.0911C26.18 78.9827 27.6656 80.2679 27.7521 82.6821C27.8366 85.0482 26.6186 86.4748 24.225 86.6043C21.7985 86.7335 20.6227 85.3185 20.3072 83.1797Z" fill="white"/>
<path d="M70.8048 53.2772C72.8415 53.2706 74.33 54.3319 74.4885 56.7466C74.6461 59.131 73.4163 60.4928 71.0276 60.7164C68.5378 60.9481 67.1899 59.5064 67.0094 57.2874C66.8277 55.0279 68.0504 53.5142 70.8048 53.2772Z" fill="white"/>
<path d="M14.7305 18.0615C14.8046 15.6421 16.0084 14.2467 18.3622 14.1124C20.7666 13.9768 22.1991 15.3993 22.3155 17.6576C22.4329 19.9337 21.1425 21.4162 18.7133 21.5392C16.2676 21.6631 15.0939 20.289 14.7305 18.0615Z" fill="white"/>
<path d="M103.079 84.6099C103.233 82.2889 104.352 80.8433 106.719 80.6168C108.812 80.4162 110.755 82.0706 110.749 84.135C110.739 86.4407 109.557 87.9638 107.167 88.1055C104.787 88.2439 103.52 86.8622 103.079 84.6099Z" fill="white"/>
<path d="M100.846 51.7794C100.662 49.1096 102.016 47.6735 104.244 47.5039C106.467 47.3361 108.072 48.5333 108.243 50.9879C108.412 53.3957 107.185 54.8042 104.834 55.0085C102.437 55.2191 101.145 53.9006 100.846 51.7794Z" fill="white"/>
<path d="M8.18795 99.2111C10.9521 98.935 12.2982 100.237 12.7381 102.45C13.1438 104.498 11.5416 106.343 9.37185 106.559C6.9784 106.796 5.47417 105.69 5.20507 103.328C4.93448 100.972 6.19339 99.5915 8.18795 99.2111Z" fill="white"/>
<path d="M138.102 110.983C138.002 108.361 139.176 106.925 141.528 106.749C143.868 106.574 145.311 107.768 145.511 110.183C145.709 112.623 144.395 113.968 142.097 114.199C139.7 114.436 138.434 113.074 138.102 110.983Z" fill="white"/>
<path d="M118.199 64.7658C118.169 62.165 119.472 60.6872 121.726 60.5458C123.983 60.4029 125.571 61.7039 125.689 64.0972C125.806 66.4309 124.563 67.916 122.187 68.0823C119.774 68.2507 118.564 66.8269 118.199 64.7658Z" fill="white"/>
<path d="M62.3111 139.484C64.8412 139.563 66.271 140.703 66.3951 143.092C66.5197 145.489 65.2238 146.887 62.8733 147.003C60.5242 147.12 59.1508 145.868 58.9896 143.458C58.8239 140.97 60.2919 139.903 62.3111 139.484Z" fill="white"/>
<path d="M156.371 94.2521C154.61 94.1612 153.18 93.0273 152.963 90.6622C152.772 88.6016 154.493 86.5957 156.528 86.6593C158.431 86.7189 160.299 87.3654 160.116 89.7222C159.963 91.7036 159.999 94.16 156.371 94.2521Z" fill="white"/>
<path d="M41.4411 130.374C41.5244 128.032 42.6453 126.576 45.0363 126.475C47.3995 126.378 48.7492 127.62 48.8945 130.025C49.0403 132.495 47.6797 133.759 45.3786 133.911C42.9841 134.071 41.7432 132.688 41.4411 130.374Z" fill="white"/>
<path d="M7.93502 36.8427C7.87281 38.9152 6.68513 40.5931 4.3811 40.4492C3.10882 40.3693 1.45504 39.2237 0.815487 38.0861C0.100779 36.8124 3.01594 32.9486 4.28713 32.9413C6.17988 32.9308 7.80596 34.5581 7.93502 36.8427Z" fill="white"/>
</svg>
