<svg width="12" height="12" viewBox="0 0 12 12" fill="none" xmlns="http://www.w3.org/2000/svg">
<path d="M5.87984 0.677659L5.99984 0.666992C6.15587 0.66694 6.30698 0.721621 6.42685 0.821511C6.54672 0.921402 6.62775 1.06017 6.65584 1.21366L6.6665 1.33366V5.33366H10.6665C10.8225 5.33361 10.9736 5.38829 11.0935 5.48818C11.2134 5.58807 11.2944 5.72684 11.3225 5.88032L11.3332 6.00033C11.3332 6.15636 11.2785 6.30747 11.1787 6.42734C11.0788 6.54721 10.94 6.62824 10.7865 6.65633L10.6665 6.66699H6.6665V10.667C6.66656 10.823 6.61187 10.9741 6.51198 11.094C6.41209 11.2139 6.27332 11.2949 6.11984 11.323L5.99984 11.3337C5.8438 11.3337 5.69269 11.279 5.57282 11.1791C5.45296 11.0792 5.37192 10.9405 5.34384 10.787L5.33317 10.667V6.66699H1.33317C1.17714 6.66704 1.02603 6.61236 0.906159 6.51247C0.78629 6.41258 0.705257 6.27381 0.67717 6.12033L0.666504 6.00033C0.666452 5.84429 0.721132 5.69318 0.821023 5.57331C0.920914 5.45344 1.05969 5.37241 1.21317 5.34433L1.33317 5.33366H5.33317V1.33366C5.33312 1.17762 5.3878 1.02652 5.48769 0.906647C5.58758 0.786778 5.72635 0.705745 5.87984 0.677659Z" fill="white"/>
</svg>
