<svg width="16" height="16" viewBox="0 0 16 16" fill="none" xmlns="http://www.w3.org/2000/svg">
<path d="M6.88228 0.927054C7.18163 0.00574303 8.48504 0.00574048 8.78439 0.927051L9.9288 4.44917C10.0627 4.8612 10.4466 5.14016 10.8799 5.14016H14.5832C15.552 5.14016 15.9547 6.37977 15.171 6.94917L12.1749 9.12597C11.8244 9.38061 11.6778 9.83198 11.8117 10.244L12.9561 13.7661C13.2554 14.6874 12.2009 15.4536 11.4172 14.8842L8.42112 12.7074C8.07063 12.4527 7.59604 12.4527 7.24555 12.7074L4.24945 14.8842C3.46574 15.4536 2.41126 14.6874 2.71061 13.7661L3.85502 10.244C3.98889 9.83198 3.84223 9.38061 3.49174 9.12597L0.49565 6.94918C-0.288064 6.37977 0.114709 5.14016 1.08343 5.14016H4.78681C5.22004 5.14016 5.60399 4.8612 5.73787 4.44917L6.88228 0.927054Z" fill="#FE7831"/>
</svg>
