<svg width="335" height="103" viewBox="0 0 335 103" fill="none" xmlns="http://www.w3.org/2000/svg">
<path d="M307.06 80.4157C308.096 81.2931 309.409 80.7417 309.994 79.1842C310.577 77.6266 310.211 75.6528 309.174 74.7754L307.06 80.4157ZM0 78.1104L24.8161 80.535L13.8051 47.0225L0 78.1104ZM304.015 70.438C302.974 69.5703 301.663 70.134 301.086 71.6969C300.509 73.2599 300.884 75.2303 301.923 76.0979L304.015 70.438ZM291.703 67.708C292.751 68.5535 294.058 67.962 294.619 66.387C295.182 64.8119 294.789 62.8495 293.741 62.0041L291.703 67.708ZM283.376 53.8065C282.319 52.9877 281.02 53.6125 280.475 55.2018C279.93 56.791 280.346 58.7429 281.403 59.5616L283.376 53.8065ZM271.011 51.709C272.079 52.4953 273.368 51.8311 273.892 50.2256C274.415 48.6202 273.973 46.6813 272.905 45.895L271.011 51.709ZM262.314 38.33C261.235 37.5825 259.955 38.2931 259.459 39.9172C258.96 41.541 259.434 43.4634 260.514 44.2107L262.314 38.33ZM249.905 37.1376C250.999 37.8385 252.264 37.0737 252.73 35.4292C253.196 33.7846 252.687 31.8833 251.593 31.1822L249.905 37.1376ZM240.729 24.534C239.62 23.8883 238.373 24.7161 237.942 26.3831C237.513 28.05 238.064 29.9248 239.172 30.5705L240.729 24.534ZM228.282 24.5832C229.408 25.1639 230.632 24.264 231.019 22.5733C231.405 20.8825 230.806 19.0412 229.68 18.4605L228.282 24.5832ZM218.454 13.0729C217.313 12.5679 216.115 13.5488 215.779 15.2637C215.443 16.9785 216.097 18.778 217.238 19.2829L218.454 13.0729ZM206.068 14.7851C207.225 15.2036 208.388 14.1339 208.666 12.3959C208.945 10.658 208.233 8.90978 207.077 8.49127L206.068 14.7851ZM195.552 4.81556C194.382 4.49347 193.261 5.65781 193.047 7.41621C192.831 9.17461 193.607 10.8612 194.777 11.1833L195.552 4.81556ZM183.354 8.55692C184.534 8.77426 185.609 7.51202 185.753 5.73763C185.898 3.96323 185.058 2.34861 183.878 2.13127L183.354 8.55692ZM172.122 0.515991C170.934 0.408435 169.913 1.7678 169.842 3.55222C169.77 5.33665 170.674 6.87039 171.862 6.97794L172.122 0.515991ZM160.327 6.47369C161.517 6.47019 162.479 5.01819 162.476 3.23054C162.475 1.44288 161.508 -0.00347743 160.318 6.27996e-06L160.327 6.47369ZM148.527 0.574936C147.34 0.686588 146.438 2.22345 146.512 4.00762C146.586 5.79179 147.608 7.14764 148.796 7.03599L148.527 0.574936ZM137.288 8.62278C138.469 8.40915 139.311 6.79715 139.169 5.02231C139.026 3.24746 137.954 1.98185 136.773 2.19547L137.288 8.62278ZM125.105 4.78412C123.933 5.09095 123.149 6.76735 123.353 8.5285C123.557 10.2896 124.672 11.4686 125.844 11.1617L125.105 4.78412ZM114.511 14.5546C115.672 14.1647 116.403 12.4344 116.143 10.6898C115.884 8.94515 114.733 7.84686 113.572 8.23669L114.511 14.5546ZM102.151 12.4601C101.002 12.9227 100.32 14.6976 100.628 16.4243C100.935 18.1511 102.116 19.1759 103.265 18.7133L102.151 12.4601ZM92.1144 23.542C93.2514 23.0163 93.8895 21.2052 93.5397 19.4965C93.19 17.7879 91.9849 16.8288 90.8481 17.3545L92.1144 23.542ZM79.6674 22.8245C78.5421 23.4041 77.9427 25.245 78.3283 26.9361C78.714 28.6271 79.9387 29.5282 81.0639 28.9486L79.6674 22.8245ZM70.1151 34.8478C71.2294 34.2223 71.7951 32.3574 71.3789 30.6829C70.9625 29.0084 69.7218 28.1579 68.6075 28.7837L70.1151 34.8478ZM57.6642 35.1553C56.5601 35.8202 56.0236 37.7042 56.4659 39.3637C56.9082 41.0233 58.162 41.8295 59.2661 41.1646L57.6642 35.1553ZM48.5115 47.834C49.6066 47.136 50.1177 45.2359 49.6534 43.5903C49.1889 41.9445 47.9247 41.1761 46.8298 41.8742L48.5115 47.834ZM36.094 48.8854C35.007 49.6115 34.5177 51.5243 35.0007 53.158C35.4838 54.7915 36.7566 55.5272 37.8435 54.801L36.094 48.8854ZM27.2519 62.0209C28.3316 61.2708 28.8023 59.3473 28.3033 57.7248C27.8043 56.102 26.5244 55.3945 25.4448 56.1445L27.2519 62.0209ZM14.8685 63.616C13.7951 64.3862 13.3405 66.3186 13.8531 67.9316C14.3655 69.5448 15.6512 70.228 16.7245 69.4579L14.8685 63.616ZM6.24777 77.0835C7.31555 76.2958 7.75635 74.3565 7.23232 72.7517C6.70829 71.1469 5.41786 70.4844 4.35009 71.272L6.24777 77.0835ZM309.174 74.7754C307.441 73.3084 305.722 71.8626 304.015 70.438L301.923 76.0979C303.623 77.5157 305.335 78.955 307.06 80.4157L309.174 74.7754ZM293.741 62.0041C290.236 59.1764 286.783 56.4436 283.376 53.8065L281.403 59.5616C284.787 62.1808 288.219 64.8963 291.703 67.708L293.741 62.0041ZM272.905 45.895C269.327 43.2617 265.799 40.7398 262.314 38.33L260.514 44.2107C263.964 46.5976 267.462 49.0968 271.011 51.709L272.905 45.895ZM251.593 31.1822C247.929 28.8355 244.31 26.6191 240.729 24.534L239.172 30.5705C242.707 32.6282 246.282 34.8172 249.905 37.1376L251.593 31.1822ZM229.68 18.4605C225.906 16.5118 222.167 14.7157 218.454 13.0729L217.238 19.2829C220.885 20.8973 224.565 22.6642 228.282 24.5832L229.68 18.4605ZM207.077 8.49127C203.218 7.09468 199.38 5.86915 195.552 4.81556L194.777 11.1833C198.523 12.2148 202.283 13.4154 206.068 14.7851L207.077 8.49127ZM183.878 2.13127C179.959 1.41011 176.046 0.871444 172.122 0.515991L171.862 6.97794C175.697 7.32532 179.523 7.85178 183.354 8.55692L183.878 2.13127ZM160.318 6.27996e-06C156.408 0.0114561 152.481 0.202961 148.527 0.574936L148.796 7.03599C152.665 6.67206 156.506 6.48486 160.327 6.47369L160.318 6.27996e-06ZM136.773 2.19547C132.921 2.89231 129.035 3.75513 125.105 4.78412L125.844 11.1617C129.702 10.1516 133.513 9.30558 137.288 8.62278L136.773 2.19547ZM113.572 8.23669C109.813 9.49916 106.008 10.9069 102.151 12.4601L103.265 18.7133C107.067 17.1824 110.813 15.7964 114.511 14.5546L113.572 8.23669ZM90.8481 17.3545C87.1745 19.0529 83.4496 20.8762 79.6674 22.8245L81.0639 28.9486C84.8054 27.0212 88.4869 25.2191 92.1144 23.542L90.8481 17.3545ZM68.6075 28.7837C65.0149 30.8011 61.3688 32.9249 57.6642 35.1553L59.2661 41.1646C62.9411 38.9522 66.5558 36.8465 70.1151 34.8478L68.6075 28.7837ZM46.8298 41.8742C43.3058 44.1203 39.7284 46.4573 36.094 48.8854L37.8435 54.801C41.4568 52.387 45.0115 50.0649 48.5115 47.834L46.8298 41.8742ZM25.4448 56.1445C21.9724 58.5566 18.4479 61.0471 14.8685 63.616L16.7245 69.4579C20.2887 66.8999 23.7969 64.4209 27.2519 62.0209L25.4448 56.1445Z" fill="#0A083A"/>
<path d="M325.617 89.0804L294.109 85.4979L321.371 66.3901L325.617 89.0804Z" fill="#0A083A"/>
</svg>
