<svg width="375" height="373" viewBox="0 0 375 373" fill="none" xmlns="http://www.w3.org/2000/svg">
<g style="mix-blend-mode:hard-light" opacity="0.7" filter="url(#filter0_f_1802_201)">
<circle cx="207.5" cy="170.5" r="102.5" fill="#315BFF"/>
</g>
<path d="M30.5067 227.532C29.3387 240.002 38.4447 251.062 50.8442 252.236C52.1282 252.358 53.3956 252.363 54.6403 252.271C58.5578 252.485 104.031 248.449 117.194 275.505C123.779 288.352 136.523 297.666 151.894 299.123C165.415 300.404 178.074 295.333 186.952 286.345L205.958 269.257C214.96 260.831 226.314 255.382 238.491 253.646L274.235 248.55C276.597 248.348 278.925 248.013 281.214 247.556L281.301 247.544L281.3 247.539C308.3 242.113 329.73 219.444 332.444 190.463C335.757 155.08 309.92 123.695 274.734 120.363C271.237 120.032 267.78 119.994 264.385 120.224L229.213 119.748C209.95 119.488 191.975 109.959 180.873 94.1271C177.894 89.8801 174.539 83.8976 174.148 82.7828C174.146 82.7744 174.12 82.7703 174.108 82.764C166.153 66.012 149.903 53.759 130.187 51.8916C100.337 49.0649 73.8609 71.1066 71.0499 101.122C71.0119 101.532 67.601 161.872 67.601 161.872C67.5955 161.96 67.59 162.047 67.5838 162.135C66.6318 176.527 60.4783 190.076 50.3893 200.329L37.5265 213.13C33.658 216.779 31.0431 221.805 30.5067 227.532Z" fill="url(#paint0_linear_1802_201)" fill-opacity="0.6"/>
<path d="M46.1609 262.708C47.9578 275.101 59.4053 283.684 71.7296 281.877C73.006 281.69 74.2383 281.393 75.4263 281.008C79.2831 280.286 122.519 265.554 141.669 288.714C151.087 299.63 165.659 305.652 180.937 303.413C194.376 301.443 205.483 293.507 211.998 282.663L226.448 261.542C233.213 251.214 242.966 243.221 254.389 238.639L287.923 225.191C290.17 224.434 292.352 223.554 294.47 222.566L294.55 222.534L294.549 222.529C319.508 210.839 335.002 183.717 330.826 154.913C325.728 119.745 293.244 95.3921 258.273 100.519C254.796 101.028 251.429 101.814 248.184 102.843L213.897 110.743C195.12 115.069 175.414 110.082 160.904 97.3393C157.012 93.9204 152.345 88.905 151.704 87.9144C151.698 87.9067 151.673 87.9095 151.66 87.906C139.992 73.5198 121.322 65.4763 101.726 68.3495C72.0582 72.6986 51.5136 100.409 55.8392 130.243C55.8978 130.65 66.769 190.09 66.769 190.09C66.7842 190.177 66.7987 190.263 66.8139 190.35C69.2721 204.56 66.4784 219.188 59.085 231.548L49.5959 247.045C46.6945 251.51 45.3359 257.015 46.1609 262.708Z" fill="url(#paint1_linear_1802_201)" fill-opacity="0.6"/>
<path d="M311.446 133.628C311.515 132.381 312.127 131.578 313.37 131.401C314.512 131.239 315.665 132.266 315.637 133.424C315.606 134.683 314.901 135.5 313.653 135.564C312.404 135.626 311.683 134.864 311.446 133.628Z" fill="white"/>
<path d="M318.547 84.7421C319.808 84.8119 320.639 85.4184 320.745 86.6893C320.849 87.9562 320.157 88.7507 318.911 88.9455C317.725 89.1303 316.661 88.1878 316.637 86.9675C316.611 85.6652 317.372 85.0122 318.547 84.7421Z" fill="white"/>
<path d="M330.235 93.7629C330.276 95.0886 329.638 95.8656 328.417 96.0932C327.266 96.3079 326.131 95.3469 326.104 94.1508C326.077 92.8817 326.739 92.0411 327.992 91.9429C329.229 91.847 330.001 92.5508 330.235 93.7629Z" fill="white"/>
<path d="M282.136 111.397C282.142 110.308 282.703 109.442 283.992 109.301C285.27 109.16 286.112 109.827 286.254 111.113C286.398 112.402 285.701 113.196 284.445 113.408C283.325 113.597 282.281 112.725 282.136 111.397Z" fill="white"/>
<path d="M276.888 104.046C276.814 105.295 276.226 106.152 274.931 106.236C273.644 106.319 272.843 105.59 272.749 104.311C272.655 103.02 273.368 102.211 274.653 102.121C275.947 102.027 276.651 102.783 276.888 104.046Z" fill="white"/>
<path d="M322.802 138.537C324.035 138.564 324.897 139.085 325.061 140.38C325.226 141.67 324.557 142.462 323.336 142.72C322.181 142.964 321.027 142.04 320.963 140.842C320.895 139.561 321.59 138.834 322.802 138.537Z" fill="white"/>
<path d="M300.028 87.909C301.38 88.0094 302.229 88.6296 302.283 89.9177C302.336 91.1856 301.626 92.0093 300.33 92.0725C299.04 92.1337 298.263 91.4157 298.186 90.1238C298.109 88.8047 298.922 88.1655 300.028 87.909Z" fill="white"/>
<path d="M295.711 135.179C296.932 135.244 297.803 135.768 297.926 137.075C298.048 138.357 297.412 139.146 296.142 139.335C294.906 139.517 293.838 138.659 293.811 137.436C293.783 136.162 294.51 135.452 295.711 135.179Z" fill="white"/>
<path d="M256.826 105.888C258.091 105.949 258.966 106.484 259.084 107.802C259.201 109.101 258.543 109.899 257.247 110.039C255.921 110.184 255.149 109.437 255.001 108.2C254.844 106.901 255.647 106.2 256.826 105.888Z" fill="white"/>
<path d="M329.47 114.241C328.401 114.218 327.603 113.629 327.46 112.323C327.335 111.187 328.236 110.075 329.334 110.062C330.598 110.048 331.401 110.732 331.589 111.986C331.754 113.091 330.815 114.125 329.47 114.241Z" fill="white"/>
<path d="M298.911 69.794C299.954 69.7939 300.787 70.3117 300.966 71.6168C301.136 72.8666 300.306 73.9073 299.071 73.9545C297.787 74.0035 297.038 73.2845 296.844 72.0634C296.671 70.9727 297.593 69.9319 298.911 69.794Z" fill="white"/>
<path d="M339.757 101C339.855 102.164 339.016 103.18 337.884 103.272C336.778 103.361 335.702 102.453 335.61 101.351C335.519 100.252 336.429 99.1762 337.534 99.0736C338.658 98.97 339.66 99.8385 339.757 101Z" fill="white"/>
<path d="M265.235 94.9252C266.327 94.9174 267.107 95.5861 267.323 96.8169C267.519 97.9237 266.594 99.0098 265.442 99.0756C264.162 99.1492 263.362 98.5273 263.206 97.2163C263.063 96.0145 263.856 95.0573 265.235 94.9252Z" fill="white"/>
<path d="M303.998 128.436C302.923 128.36 302.055 127.812 301.955 126.49C301.855 125.177 302.583 124.365 303.833 124.25C305.115 124.131 305.882 124.925 306.082 126.16C306.255 127.229 305.261 128.335 303.998 128.436Z" fill="white"/>
<path d="M288.424 129.954C288.518 131.089 287.653 132.087 286.495 132.179C285.339 132.27 284.324 131.416 284.244 130.286C284.164 129.173 285.075 128.097 286.169 128.009C287.263 127.921 288.332 128.843 288.424 129.954Z" fill="white"/>
<path d="M323.359 122.745C323.383 124.189 322.813 125.024 321.512 125.163C320.215 125.301 319.388 124.624 319.25 123.348C319.112 122.068 319.797 121.234 321.08 121.084C322.384 120.931 323.074 121.686 323.359 122.745Z" fill="white"/>
<path d="M306.378 79.2498C306.361 78.001 306.909 77.1477 308.211 77.002C309.519 76.8555 310.311 77.5576 310.451 78.8285C310.593 80.1069 309.942 80.9728 308.655 81.1032C307.39 81.2298 306.604 80.5634 306.378 79.2498Z" fill="white"/>
<path d="M300.243 108.888C300.317 107.607 300.955 106.844 302.243 106.742C303.391 106.652 304.447 107.579 304.414 108.7C304.377 109.954 303.719 110.788 302.419 110.846C301.123 110.903 300.435 110.147 300.243 108.888Z" fill="white"/>
<path d="M275.93 120.216C277.184 120.289 277.995 120.907 278.054 122.215C278.112 123.511 277.417 124.295 276.121 124.373C274.801 124.451 274.064 123.684 273.982 122.419C273.897 121.115 274.662 120.416 275.93 120.216Z" fill="white"/>
<path d="M282.327 91.7862C283.586 91.7492 284.448 92.3091 284.577 93.6084C284.703 94.8724 284.096 95.7033 282.77 95.8509C281.454 95.9968 280.647 95.3464 280.505 94.0758C280.363 92.806 281.039 92.0205 282.327 91.7862Z" fill="white"/>
<path d="M279.206 75.8224C279.218 74.469 279.892 73.6805 281.164 73.6155C282.445 73.5508 283.234 74.2904 283.301 75.5843C283.368 76.8879 282.65 77.6581 281.36 77.7311C280.047 77.8047 279.373 77.0459 279.206 75.8224Z" fill="white"/>
<path d="M290.497 80.7769C291.766 80.7002 292.839 81.5977 292.827 82.7199C292.814 83.9633 292.23 84.8408 290.894 84.908C289.592 84.9739 288.835 84.2852 288.734 82.9832C288.632 81.6443 289.409 80.996 290.497 80.7769Z" fill="white"/>
<path d="M275.15 86.4943C275.097 87.7484 274.586 88.5843 273.239 88.6932C271.911 88.8013 271.143 88.1178 271.024 86.8557C270.905 85.5741 271.601 84.7589 272.89 84.6446C274.18 84.5302 274.906 85.2397 275.15 86.4943Z" fill="white"/>
<path d="M265.747 133.418C265.848 132.148 266.435 131.327 267.748 131.261C269.061 131.194 269.851 131.949 269.916 133.193C269.984 134.44 269.298 135.255 267.959 135.323C266.624 135.391 265.985 134.639 265.747 133.418Z" fill="white"/>
<path d="M307.352 144.657C307.34 145.678 306.694 146.448 305.4 146.514C304.086 146.58 303.386 145.83 303.284 144.543C303.192 143.374 304.091 142.323 305.218 142.368C306.443 142.417 307.278 143.011 307.352 144.657Z" fill="white"/>
<path d="M296.636 119.212C296.604 120.343 295.985 121.177 294.695 121.244C293.415 121.311 292.655 120.577 292.535 119.288C292.427 118.127 293.33 117.12 294.46 117.058C295.58 116.998 296.561 117.903 296.636 119.212Z" fill="white"/>
<path d="M264.555 115.319C264.552 113.919 265.247 113.139 266.502 113.078C267.759 113.019 268.569 113.723 268.616 115.046C268.662 116.343 267.998 117.125 266.692 117.196C265.369 117.267 264.727 116.491 264.555 115.319Z" fill="white"/>
<path d="M292.087 98.926C293.197 98.9224 294.009 99.5041 294.095 100.828C294.181 102.135 293.511 102.881 292.208 103.004C290.851 103.131 290.116 102.341 290.017 101.124C289.918 99.8857 290.585 99.056 292.087 98.926Z" fill="white"/>
<path d="M261.515 79.6181C261.556 78.292 262.212 77.5272 263.496 77.4536C264.807 77.3792 265.588 78.1588 265.652 79.3966C265.716 80.6441 265.012 81.4567 263.687 81.5241C262.353 81.5921 261.713 80.8389 261.515 79.6181Z" fill="white"/>
<path d="M309.683 116.103C309.767 114.831 310.377 114.039 311.668 113.915C312.81 113.805 313.87 114.711 313.866 115.843C313.861 117.106 313.216 117.941 311.913 118.019C310.615 118.095 309.924 117.338 309.683 116.103Z" fill="white"/>
<path d="M308.464 98.1051C308.365 96.6421 309.104 95.8549 310.319 95.7614C311.532 95.669 312.407 96.3246 312.5 97.6697C312.591 98.9891 311.922 99.7612 310.639 99.8737C309.332 99.9897 308.627 99.2674 308.464 98.1051Z" fill="white"/>
<path d="M257.948 124.111C259.456 123.959 260.19 124.671 260.43 125.884C260.65 127.006 259.776 128.017 258.592 128.136C257.286 128.267 256.466 127.662 256.32 126.367C256.173 125.077 256.86 124.32 257.948 124.111Z" fill="white"/>
<path d="M328.777 130.563C328.723 129.127 329.363 128.34 330.646 128.242C331.923 128.146 332.71 128.8 332.818 130.123C332.926 131.46 332.209 132.198 330.955 132.325C329.648 132.455 328.957 131.709 328.777 130.563Z" fill="white"/>
<path d="M317.926 105.226C317.91 103.8 318.621 102.99 319.851 102.912C321.081 102.834 321.947 103.546 322.011 104.858C322.075 106.137 321.397 106.951 320.1 107.042C318.784 107.135 318.124 106.355 317.926 105.226Z" fill="white"/>
<path d="M287.455 146.19C288.835 146.233 289.615 146.858 289.683 148.167C289.751 149.48 289.044 150.247 287.762 150.31C286.481 150.375 285.732 149.689 285.644 148.368C285.553 147.004 286.354 146.419 287.455 146.19Z" fill="white"/>
<path d="M338.739 121.39C337.778 121.34 336.998 120.719 336.88 119.422C336.776 118.293 337.715 117.193 338.824 117.228C339.861 117.261 340.88 117.615 340.781 118.907C340.697 119.993 340.717 121.34 338.739 121.39Z" fill="white"/>
<path d="M276.078 141.195C276.123 139.911 276.734 139.113 278.038 139.058C279.327 139.004 280.063 139.685 280.142 141.004C280.222 142.357 279.48 143.05 278.225 143.133C276.919 143.221 276.242 142.463 276.078 141.195Z" fill="white"/>
<path d="M257.811 89.9155C257.776 91.051 257.128 91.9707 255.871 91.8927C255.176 91.8494 254.275 91.2224 253.926 90.5993C253.537 89.9018 255.128 87.7838 255.822 87.7793C256.855 87.7729 257.741 88.6638 257.811 89.9155Z" fill="white"/>
<g opacity="0.9">
<g opacity="0.9">
<path opacity="0.9" d="M96.1016 314.367C96.9354 313.97 97.9316 314.324 98.326 315.161C98.7205 315.997 98.3654 317 97.5307 317.399C96.6966 317.797 95.7001 317.442 95.3056 316.605C94.9112 315.769 95.2676 314.766 96.1016 314.367Z" fill="#315BFF"/>
</g>
<g opacity="0.9">
<path opacity="0.9" d="M91.3989 304.367C92.2336 303.968 93.2295 304.323 93.6243 305.16C94.0189 305.997 93.6623 306.999 92.8279 307.397C91.9939 307.796 90.9983 307.441 90.6035 306.604C90.2089 305.767 90.5649 304.765 91.3989 304.367Z" fill="#315BFF"/>
</g>
<g opacity="0.9">
<path opacity="0.9" d="M86.6028 294.366C87.4374 293.967 88.4333 294.322 88.8279 295.159C89.2227 295.996 88.8664 296.997 88.0318 297.396C87.1978 297.795 86.2018 297.44 85.8073 296.603C85.4125 295.766 85.7688 294.764 86.6028 294.366Z" fill="#315BFF"/>
</g>
<g opacity="0.9">
<path opacity="0.9" d="M81.9 284.367C82.7356 283.968 83.7303 284.322 84.1257 285.16C84.5196 285.997 84.1637 286.999 83.329 287.398C82.495 287.796 81.4991 287.441 81.1045 286.604C80.7097 285.767 81.066 284.766 81.9 284.367Z" fill="#315BFF"/>
</g>
<g opacity="0.9">
<path opacity="0.9" d="M77.1991 274.388C78.0328 273.99 79.029 274.344 79.4239 275.182C79.8184 276.018 79.4624 277.021 78.6281 277.419C77.7947 277.817 76.7978 277.463 76.403 276.626C76.0085 275.789 76.3651 274.786 77.1991 274.388Z" fill="#315BFF"/>
</g>
<g opacity="0.9">
<path opacity="0.9" d="M104.753 310.231C105.588 309.832 106.583 310.186 106.978 311.024C107.373 311.861 107.017 312.863 106.182 313.262C105.348 313.66 104.352 313.306 103.957 312.468C103.563 311.631 103.919 310.629 104.753 310.231Z" fill="#315BFF"/>
</g>
<g opacity="0.9">
<path opacity="0.9" d="M100.051 300.253C100.886 299.854 101.881 300.209 102.276 301.046C102.671 301.884 102.315 302.885 101.48 303.284C100.646 303.683 99.6501 303.328 99.2556 302.491C98.8607 301.653 99.217 300.652 100.051 300.253Z" fill="#315BFF"/>
</g>
<g opacity="0.9">
<path opacity="0.9" d="M95.2546 290.253C96.0887 289.855 97.0849 290.209 97.4797 291.046C97.8743 291.883 97.5177 292.885 96.6837 293.284C95.85 293.682 94.8537 293.327 94.4589 292.49C94.0643 291.653 94.4209 290.651 95.2546 290.253Z" fill="#315BFF"/>
</g>
<g opacity="0.9">
<path opacity="0.9" d="M90.5526 280.251C91.3873 279.852 92.3832 280.208 92.778 281.045C93.1726 281.882 92.816 282.884 91.9816 283.282C91.1476 283.681 90.152 283.326 89.7572 282.489C89.3626 281.652 89.7186 280.65 90.5526 280.251Z" fill="#315BFF"/>
</g>
<g opacity="0.9">
<path opacity="0.9" d="M85.8505 270.251C86.6851 269.852 87.6807 270.207 88.0759 271.045C88.4704 271.882 88.1141 272.883 87.2795 273.282C86.4454 273.681 85.4498 273.326 85.055 272.489C84.6605 271.652 85.0164 270.65 85.8505 270.251Z" fill="#315BFF"/>
</g>
<g opacity="0.9">
<path opacity="0.9" d="M113.405 306.117C114.24 305.718 115.235 306.072 115.63 306.91C116.025 307.746 115.669 308.748 114.834 309.147C114 309.546 113.004 309.191 112.61 308.354C112.215 307.517 112.571 306.514 113.405 306.117Z" fill="#315BFF"/>
</g>
<g opacity="0.9">
<path opacity="0.9" d="M108.703 296.116C109.538 295.718 110.533 296.073 110.928 296.909C111.323 297.746 110.967 298.748 110.132 299.146C109.298 299.545 108.302 299.191 107.908 298.354C107.512 297.517 107.869 296.515 108.703 296.116Z" fill="#315BFF"/>
</g>
<g opacity="0.9">
<path opacity="0.9" d="M103.906 286.115C104.741 285.716 105.737 286.071 106.132 286.908C106.526 287.745 106.17 288.746 105.335 289.146C104.502 289.544 103.505 289.19 103.112 288.353C102.716 287.516 103.072 286.514 103.906 286.115Z" fill="#315BFF"/>
</g>
<g opacity="0.9">
<path opacity="0.9" d="M99.2043 276.115C100.039 275.716 101.035 276.07 101.43 276.908C101.824 277.744 101.468 278.746 100.633 279.145C99.7993 279.544 98.8034 279.189 98.4089 278.352C98.014 277.515 98.3703 276.513 99.2043 276.115Z" fill="#315BFF"/>
</g>
<g opacity="0.9">
<path opacity="0.9" d="M94.5028 266.113C95.3366 265.715 96.3329 266.07 96.7275 266.907C97.1221 267.743 96.7665 268.746 95.9324 269.144C95.0982 269.543 94.1016 269.188 93.707 268.351C93.3124 267.514 93.6684 266.512 94.5028 266.113Z" fill="#315BFF"/>
</g>
<g opacity="0.9">
<path opacity="0.9" d="M122.057 301.979C122.892 301.58 123.887 301.935 124.282 302.773C124.677 303.609 124.32 304.612 123.486 305.01C122.652 305.408 121.656 305.054 121.261 304.216C120.867 303.38 121.222 302.378 122.057 301.979Z" fill="#315BFF"/>
</g>
<g opacity="0.9">
<path opacity="0.9" d="M117.354 291.979C118.19 291.581 119.184 291.935 119.58 292.772C119.974 293.61 119.618 294.611 118.783 295.01C117.949 295.409 116.953 295.054 116.559 294.217C116.164 293.38 116.52 292.378 117.354 291.979Z" fill="#315BFF"/>
</g>
<g opacity="0.9">
<path opacity="0.9" d="M112.558 281.978C113.393 281.579 114.388 281.934 114.784 282.771C115.178 283.608 114.822 284.61 113.987 285.009C113.153 285.408 112.157 285.052 111.762 284.216C111.368 283.378 111.724 282.376 112.558 281.978Z" fill="#315BFF"/>
</g>
<g opacity="0.9">
<path opacity="0.9" d="M107.857 271.977C108.691 271.579 109.687 271.933 110.082 272.771C110.476 273.607 110.12 274.609 109.286 275.007C108.452 275.407 107.456 275.052 107.061 274.215C106.666 273.378 107.022 272.376 107.857 271.977Z" fill="#315BFF"/>
</g>
<g opacity="0.9">
<path opacity="0.9" d="M103.154 262C103.989 261.601 104.985 261.956 105.38 262.794C105.774 263.63 105.418 264.632 104.584 265.03C103.75 265.428 102.754 265.074 102.359 264.237C101.965 263.4 102.32 262.399 103.154 262Z" fill="#315BFF"/>
</g>
<g opacity="0.9">
<path opacity="0.9" d="M130.709 297.841C131.544 297.443 132.539 297.797 132.934 298.634C133.328 299.471 132.972 300.473 132.138 300.872C131.304 301.271 130.308 300.915 129.913 300.079C129.518 299.242 129.875 298.24 130.709 297.841Z" fill="#315BFF"/>
</g>
<g opacity="0.9">
<path opacity="0.9" d="M126.007 287.865C126.841 287.467 127.836 287.821 128.232 288.658C128.625 289.495 128.27 290.497 127.436 290.896C126.601 291.295 125.605 290.94 125.211 290.103C124.816 289.266 125.172 288.263 126.007 287.865Z" fill="#315BFF"/>
</g>
<g opacity="0.9">
<path opacity="0.9" d="M121.211 277.863C122.045 277.466 123.041 277.82 123.436 278.657C123.83 279.494 123.474 280.496 122.64 280.894C121.806 281.293 120.81 280.938 120.415 280.101C120.02 279.264 120.377 278.262 121.211 277.863Z" fill="#315BFF"/>
</g>
<g opacity="0.9">
<path opacity="0.9" d="M116.508 267.865C117.343 267.466 118.338 267.821 118.734 268.658C119.128 269.495 118.772 270.496 117.937 270.896C117.103 271.294 116.107 270.94 115.712 270.102C115.317 269.265 115.674 268.264 116.508 267.865Z" fill="#315BFF"/>
</g>
<g opacity="0.9">
<path opacity="0.9" d="M111.805 257.862C112.641 257.464 113.636 257.819 114.032 258.656C114.426 259.493 114.07 260.495 113.236 260.893C112.402 261.292 111.405 260.936 111.01 260.1C110.615 259.262 110.971 258.26 111.805 257.862Z" fill="#315BFF"/>
</g>
</g>
<g opacity="0.96">
<g opacity="0.96">
<path opacity="0.96" d="M101.022 116.038L71.1041 103.867C70.2471 103.518 69.7007 102.666 69.741 101.74L70.1984 91.2192C70.2798 89.3471 72.5155 88.4457 73.8687 89.7424C77.0869 92.8264 82.1005 97.635 86.948 102.301C94.2991 109.376 101.269 116.124 101.022 116.038Z" fill="white"/>
</g>
</g>
<g opacity="0.96">
<g opacity="0.96">
<path opacity="0.96" d="M106.023 115.007L95.4093 84.3697C95.1077 83.499 95.3858 82.5328 96.1041 81.9557L104.29 75.3787C105.751 74.2053 107.914 75.2808 107.834 77.1527C107.356 88.3726 106.186 115.411 106.023 115.007Z" fill="white"/>
</g>
</g>
<g opacity="0.96">
<g opacity="0.96">
<path opacity="0.96" d="M103.546 126.52L86.8853 130.54C85.9832 130.758 85.0422 130.381 84.54 129.6L82.9158 127.077C81.9042 125.505 83.2044 123.472 85.0544 123.74C91.9019 124.731 103.752 126.459 103.546 126.52Z" fill="white"/>
</g>
</g>
<circle cx="263.319" cy="287.773" r="7.63286" fill="white"/>
<circle cx="175.167" cy="37.6192" r="7.63286" fill="white" fill-opacity="0.5"/>
<circle cx="297.292" cy="23.4438" r="10.3589" fill="white"/>
<defs>
<filter id="filter0_f_1802_201" x="47.8792" y="10.8792" width="319.242" height="319.242" filterUnits="userSpaceOnUse" color-interpolation-filters="sRGB">
<feFlood flood-opacity="0" result="BackgroundImageFix"/>
<feBlend mode="normal" in="SourceGraphic" in2="BackgroundImageFix" result="shape"/>
<feGaussianBlur stdDeviation="28.5604" result="effect1_foregroundBlur_1802_201"/>
</filter>
<linearGradient id="paint0_linear_1802_201" x1="20.9581" y1="101.356" x2="504.389" y2="178.965" gradientUnits="userSpaceOnUse">
<stop stop-color="#8AA8F8"/>
<stop offset="1" stop-color="#315BFF"/>
</linearGradient>
<linearGradient id="paint1_linear_1802_201" x1="331.504" y1="185.824" x2="45.9226" y2="185.824" gradientUnits="userSpaceOnUse">
<stop stop-color="#02BE83"/>
<stop offset="1" stop-color="#B3F6DC"/>
</linearGradient>
</defs>
</svg>
