<svg width="17" height="16" viewBox="0 0 17 16" fill="none" xmlns="http://www.w3.org/2000/svg">
<path d="M7.71553 0.927054C8.01488 0.00574303 9.31829 0.00574048 9.61764 0.927051L10.762 4.44917C10.8959 4.8612 11.2799 5.14016 11.7131 5.14016H15.4165C16.3852 5.14016 16.788 6.37977 16.0043 6.94917L13.0082 9.12597C12.6577 9.38061 12.511 9.83198 12.6449 10.244L13.7893 13.7661C14.0887 14.6874 13.0342 15.4536 12.2505 14.8842L9.25437 12.7074C8.90388 12.4527 8.42929 12.4527 8.0788 12.7074L5.0827 14.8842C4.29899 15.4536 3.24451 14.6874 3.54386 13.7661L4.68827 10.244C4.82214 9.83198 4.67548 9.38061 4.325 9.12597L1.3289 6.94918C0.545188 6.37977 0.947961 5.14016 1.91668 5.14016H5.62006C6.05329 5.14016 6.43725 4.8612 6.57112 4.44917L7.71553 0.927054Z" fill="#A4A4A3"/>
</svg>
